<?xml version="1.0" standalone="no"?>
<!DOCTYPE svg PUBLIC "-//W3C//DTD SVG 20010904//EN"
 "http://www.w3.org/TR/2001/REC-SVG-20010904/DTD/svg10.dtd">
<svg version="1.0" xmlns="http://www.w3.org/2000/svg"
 width="512.000000pt" height="512.000000pt" viewBox="0 0 512.000000 512.000000"
 preserveAspectRatio="xMidYMid meet">
<metadata>
Created by potrace 1.14, written by Peter Selinger 2001-2017
</metadata>
<g transform="translate(0.000000,512.000000) scale(0.100000,-0.100000)"
fill="#000000" stroke="none">
<path d="M1760 4700 c-41 -4 -115 -8 -165 -9 -50 -1 -126 -10 -171 -20 -44
-11 -116 -23 -160 -27 -43 -3 -86 -12 -94 -19 -8 -7 -33 -16 -55 -19 -22 -4
-67 -16 -100 -26 -33 -11 -104 -24 -158 -30 -82 -9 -117 -18 -219 -62 -104
-45 -131 -61 -184 -113 -48 -46 -66 -74 -83 -120 -12 -33 -25 -69 -30 -80 -5
-11 -14 -56 -21 -100 -7 -44 -17 -89 -23 -100 -6 -11 -14 -112 -18 -225 -4
-113 -13 -243 -20 -290 -27 -192 2 -885 39 -922 9 -9 12 -76 12 -262 0 -259 4
-300 50 -456 10 -36 24 -87 30 -115 6 -27 24 -70 39 -95 32 -51 52 -153 53
-265 1 -78 22 -215 38 -245 5 -10 10 -32 10 -48 0 -36 25 -110 45 -132 8 -9
27 -47 43 -86 27 -65 32 -71 98 -111 38 -23 77 -43 87 -43 26 0 151 -65 189
-98 18 -16 58 -37 88 -47 30 -9 83 -32 118 -51 34 -19 74 -34 88 -34 13 0 41
-7 61 -15 19 -8 52 -15 72 -15 20 0 72 -8 116 -19 44 -11 112 -25 150 -31 39
-6 97 -16 130 -22 37 -7 245 -11 545 -11 521 -1 576 3 800 58 52 12 138 32
192 44 116 27 155 50 283 175 86 84 97 100 148 206 64 134 97 274 97 411 l0
86 68 6 c73 7 291 71 359 106 39 19 78 51 186 147 22 20 35 39 31 46 -4 6 -3
8 2 5 31 -19 213 224 214 285 1 7 9 31 20 53 11 22 20 49 20 60 1 23 36 161
45 176 19 29 35 213 35 395 l0 201 -45 96 c-25 53 -45 103 -45 111 0 8 -22 38
-48 68 -26 29 -64 76 -85 104 -40 56 -111 125 -148 144 -13 7 -43 28 -65 47
-23 18 -68 44 -100 57 -33 13 -99 41 -149 64 -49 22 -103 44 -120 48 -16 4
-40 13 -51 21 -22 14 -84 27 -182 39 l-53 7 7 89 c5 57 3 97 -4 111 -6 12 -13
36 -15 52 -3 17 -12 48 -21 70 -8 22 -15 63 -16 91 0 62 -32 172 -63 217 -100
147 -390 310 -602 337 -33 4 -107 15 -165 24 -58 8 -143 21 -190 27 -47 6
-116 18 -153 25 -38 8 -101 14 -140 14 -40 0 -88 5 -107 11 -30 9 -103 15
-410 33 -30 2 -89 0 -130 -4z m83 -297 c-7 -2 -19 -2 -25 0 -7 3 -2 5 12 5 14
0 19 -2 13 -5z m2069 -1337 c20 -10 48 -28 61 -39 29 -27 81 -57 97 -57 7 0
24 -8 38 -19 15 -10 38 -21 52 -25 34 -8 54 -27 127 -117 106 -130 119 -198
79 -414 -32 -170 -51 -216 -133 -311 -63 -72 -132 -118 -223 -149 -111 -36
-211 -31 -264 14 -16 14 -18 26 -12 95 3 44 10 84 16 90 15 15 13 319 -2 334
-7 7 -13 51 -14 115 -1 56 -7 145 -13 197 -6 52 -9 109 -7 125 2 17 4 62 5
102 1 59 4 72 19 77 35 10 138 -1 174 -18z"/>
</g>
</svg>
