{
  "accessors": [
    {
      "bufferView": 3,
      "componentType": 5126,
      "count": 65532,
      "max": [
        1.9220823049545288,
        0.993492841720581,
        1.4018679857254028
      ],
      "min": [
        -0.993352472782135,
        -0.993492841720581,
        -0.6611636877059937
      ],
      "type": "VEC3"
    },
    {
      "bufferView": 3,
      "byteOffset": 786384,
      "componentType": 5126,
      "count": 65532,
      "max": [
        1.0,
        1.0,
        1.0
      ],
      "min": [
        -1.0,
        -1.0,
        -0.9999692440032959
      ],
      "type": "VEC3"
    },
    {
      "bufferView": 2,
      "componentType": 5126,
      "count": 65532,
      "max": [
        1.0000001192092896,
        2.0277512073516846
      ],
      "min": [
        0.0,
        0.167613685131073
      ],
      "type": "VEC2"
    },
    {
      "bufferView": 2,
      "byteOffset": 524256,
      "componentType": 5126,
      "count": 65532,
      "max": [
        2.6925292015075684,
        2.069915771484375
      ],
      "min": [
        -1.942784309387207,
        -1.6828420162200928
      ],
      "type": "VEC2"
    },
    {
      "bufferView": 1,
      "componentType": 5125,
      "count": 355860,
      "type": "SCALAR"
    },
    {
      "bufferView": 3,
      "byteOffset": 1572768,
      "componentType": 5126,
      "count": 60684,
      "max": [
        1.9496186971664429,
        0.9935952425003052,
        1.4018679857254028
      ],
      "min": [
        -0.993352472782135,
        -0.9935952425003052,
        -1.1219342947006226
      ],
      "type": "VEC3"
    },
    {
      "bufferView": 3,
      "byteOffset": 2300976,
      "componentType": 5126,
      "count": 60684,
      "max": [
        1.0,
        1.0,
        1.0
      ],
      "min": [
        -1.0,
        -1.0,
        -1.0
      ],
      "type": "VEC3"
    },
    {
      "bufferView": 2,
      "byteOffset": 1048512,
      "componentType": 5126,
      "count": 60684,
      "max": [
        1.446975588798523,
        2.0277512073516846
      ],
      "min": [
        0.0,
        -0.2945815622806549
      ],
      "type": "VEC2"
    },
    {
      "bufferView": 2,
      "byteOffset": 1533984,
      "componentType": 5126,
      "count": 60684,
      "max": [
        2.659174680709839,
        2.0622801780700684
      ],
      "min": [
        -1.929163932800293,
        -1.9225364923477173
      ],
      "type": "VEC2"
    },
    {
      "bufferView": 1,
      "byteOffset": 1423440,
      "componentType": 5125,
      "count": 322476,
      "type": "SCALAR"
    },
    {
      "bufferView": 3,
      "byteOffset": 3029184,
      "componentType": 5126,
      "count": 1289,
      "max": [
        1.0,
        1.3510799407958984,
        3.0265369415283203
      ],
      "min": [
        -1.0,
        -0.6489200592041016,
        0.0
      ],
      "type": "VEC3"
    },
    {
      "bufferView": 3,
      "byteOffset": 3044652,
      "componentType": 5126,
      "count": 1289,
      "max": [
        1.0,
        1.0,
        0.9999936819076538
      ],
      "min": [
        -1.0,
        -1.0,
        -1.0
      ],
      "type": "VEC3"
    },
    {
      "bufferView": 2,
      "byteOffset": 2019456,
      "componentType": 5126,
      "count": 1289,
      "max": [
        0.0,
        0.0
      ],
      "min": [
        0.0,
        0.0
      ],
      "type": "VEC2"
    },
    {
      "bufferView": 2,
      "byteOffset": 2029768,
      "componentType": 5126,
      "count": 1289,
      "max": [
        0.9024536609649658,
        1.0
      ],
      "min": [
        0.0,
        0.0
      ],
      "type": "VEC2"
    },
    {
      "bufferView": 1,
      "byteOffset": 2713344,
      "componentType": 5125,
      "count": 6714,
      "type": "SCALAR"
    },
    {
      "bufferView": 3,
      "byteOffset": 3060120,
      "componentType": 5126,
      "count": 244,
      "max": [
        0.8999371528625488,
        5.017788410186768,
        -1.1482620239257813
      ],
      "min": [
        -1.0107465982437134,
        2.351304769515991,
        -3.058945894241333
      ],
      "type": "VEC3"
    },
    {
      "bufferView": 3,
      "byteOffset": 3063048,
      "componentType": 5126,
      "count": 244,
      "max": [
        0.9957548379898071,
        0.8776015639305115,
        0.9673373699188232
      ],
      "min": [
        -0.9925805926322937,
        -0.26466134190559387,
        -0.9673373699188232
      ],
      "type": "VEC3"
    },
    {
      "bufferView": 2,
      "byteOffset": 2040080,
      "componentType": 5126,
      "count": 244,
      "max": [
        1.0000001192092896,
        1.0000001192092896
      ],
      "min": [
        7.450580596923828e-08,
        0.010000006295740604
      ],
      "type": "VEC2"
    },
    {
      "bufferView": 1,
      "byteOffset": 2740200,
      "componentType": 5125,
      "count": 936,
      "type": "SCALAR"
    },
    {
      "bufferView": 5,
      "componentType": 5126,
      "count": 5,
      "max": [
        150.49044799804688,
        0.5323604345321655,
        0.0,
        0.0,
        0.31755319237709045,
        150.4904327392578,
        8.439775101010127e-09,
        0.0,
        2.903209974647325e-07,
        1.7699983345664805e-07,
        150.49044799804688,
        0.0,
        2.4179487228393555,
        0.0,
        3.2613072395324707,
        1.0
      ],
      "min": [
        1.0,
        -0.31755325198173523,
        -3.3416259270779847e-07,
        0.0,
        -0.532360315322876,
        1.0,
        -1.5092685146100848e-07,
        0.0,
        0.0,
        0.0,
        1.0,
        0.0,
        -0.976701021194458,
        -5.53599214553833,
        0.0,
        1.0
      ],
      "type": "MAT4"
    },
    {
      "bufferView": 0,
      "componentType": 5123,
      "count": 244,
      "type": "VEC4"
    },
    {
      "bufferView": 4,
      "componentType": 5126,
      "count": 244,
      "max": [
        1.0,
        0.4783157408237457,
        0.23293250799179077,
        0.0
      ],
      "min": [
        0.4842417538166046,
        0.0,
        0.0,
        0.0
      ],
      "type": "VEC4"
    },
    {
      "bufferView": 6,
      "componentType": 5126,
      "count": 149,
      "max": [
        3.75
      ],
      "min": [
        0.0
      ],
      "type": "SCALAR"
    },
    {
      "bufferView": 7,
      "componentType": 5126,
      "count": 149,
      "max": [
        -2.5582266971468925e-08,
        1.2623960971832275,
        3.3760452211595293e-09
      ],
      "min": [
        -2.5582266971468925e-08,
        1.2623960971832275,
        3.376043666847295e-09
      ],
      "type": "VEC3"
    },
    {
      "bufferView": 6,
      "byteOffset": 596,
      "componentType": 5126,
      "count": 180,
      "max": [
        3.75
      ],
      "min": [
        0.0
      ],
      "type": "SCALAR"
    },
    {
      "bufferView": 8,
      "componentType": 5126,
      "count": 180,
      "max": [
        0.05333361402153969,
        0.016431525349617004,
        0.19964852929115295,
        0.99925297498703
      ],
      "min": [
        0.02075805887579918,
        -0.008288024924695492,
        -0.2825454771518707,
        0.9589934349060059
      ],
      "type": "VEC4"
    },
    {
      "bufferView": 6,
      "byteOffset": 1316,
      "componentType": 5126,
      "count": 162,
      "max": [
        3.75
      ],
      "min": [
        0.0
      ],
      "type": "SCALAR"
    },
    {
      "bufferView": 7,
      "byteOffset": 1788,
      "componentType": 5126,
      "count": 162,
      "max": [
        2.619345185195243e-09,
        1.1287901401519775,
        -2.0372636910792608e-10
      ],
      "min": [
        2.6193438529276136e-09,
        1.1287901401519775,
        -2.0372725728634578e-10
      ],
      "type": "VEC3"
    },
    {
      "bufferView": 6,
      "byteOffset": 1964,
      "componentType": 5126,
      "count": 180,
      "max": [
        3.75
      ],
      "min": [
        0.0
      ],
      "type": "SCALAR"
    },
    {
      "bufferView": 8,
      "byteOffset": 2880,
      "componentType": 5126,
      "count": 180,
      "max": [
        0.003318744944408536,
        0.39663875102996826,
        0.13434875011444092,
        0.9995415806770325
      ],
      "min": [
        -0.16425953805446625,
        -0.030225086957216263,
        -0.251857727766037,
        0.8673316240310669
      ],
      "type": "VEC4"
    },
    {
      "bufferView": 6,
      "byteOffset": 2684,
      "componentType": 5126,
      "count": 180,
      "max": [
        3.75
      ],
      "min": [
        0.0
      ],
      "type": "SCALAR"
    },
    {
      "bufferView": 8,
      "byteOffset": 5760,
      "componentType": 5126,
      "count": 180,
      "max": [
        0.7089636921882629,
        0.7113645076751709,
        0.707752525806427,
        0.7045663595199585
      ],
      "min": [
        -0.007245128508657217,
        -0.0562344565987587,
        0.0015231430297717452,
        0.036233607679605484
      ],
      "type": "VEC4"
    }
  ],
  "animations": [
    {
      "channels": [
        {
          "sampler": 0,
          "target": {
            "node": 35,
            "path": "translation"
          }
        },
        {
          "sampler": 1,
          "target": {
            "node": 35,
            "path": "rotation"
          }
        },
        {
          "sampler": 2,
          "target": {
            "node": 34,
            "path": "translation"
          }
        },
        {
          "sampler": 3,
          "target": {
            "node": 34,
            "path": "rotation"
          }
        },
        {
          "sampler": 4,
          "target": {
            "node": 33,
            "path": "rotation"
          }
        }
      ],
      "name": "Armature|ArmatureAction",
      "samplers": [
        {
          "input": 22,
          "interpolation": "LINEAR",
          "output": 23
        },
        {
          "input": 24,
          "interpolation": "LINEAR",
          "output": 25
        },
        {
          "input": 26,
          "interpolation": "LINEAR",
          "output": 27
        },
        {
          "input": 28,
          "interpolation": "LINEAR",
          "output": 29
        },
        {
          "input": 30,
          "interpolation": "LINEAR",
          "output": 31
        }
      ]
    }
  ],
  "asset": {
    "extras": {
      "author": "Ju Designer (https://sketchfab.com/JuDesigner)",
      "license": "CC-BY-4.0 (http://creativecommons.org/licenses/by/4.0/)",
      "source": "https://sketchfab.com/3d-models/coffe-cafe-3bbbfc9bf1154077ae6a4a6234453566",
      "title": "Coffe (Café)"
    },
    "generator": "Sketchfab-14.15.0",
    "version": "2.0"
  },
  "bufferViews": [
    {
      "buffer": 0,
      "byteLength": 1952,
      "byteStride": 8,
      "name": "shortBufferViews",
      "target": 34962
    },
    {
      "buffer": 0,
      "byteLength": 2743944,
      "byteOffset": 1952,
      "name": "floatBufferViews",
      "target": 34963
    },
    {
      "buffer": 0,
      "byteLength": 2042032,
      "byteOffset": 2745896,
      "byteStride": 8,
      "name": "floatBufferViews",
      "target": 34962
    },
    {
      "buffer": 0,
      "byteLength": 3065976,
      "byteOffset": 4787928,
      "byteStride": 12,
      "name": "floatBufferViews",
      "target": 34962
    },
    {
      "buffer": 0,
      "byteLength": 3904,
      "byteOffset": 7853904,
      "byteStride": 16,
      "name": "floatBufferViews",
      "target": 34962
    },
    {
      "buffer": 0,
      "byteLength": 320,
      "byteOffset": 7857808,
      "name": "floatBufferViews"
    },
    {
      "buffer": 0,
      "byteLength": 3404,
      "byteOffset": 7858128,
      "name": "floatBufferViews"
    },
    {
      "buffer": 0,
      "byteLength": 3732,
      "byteOffset": 7861532,
      "byteStride": 12,
      "name": "floatBufferViews"
    },
    {
      "buffer": 0,
      "byteLength": 8640,
      "byteOffset": 7865264,
      "byteStride": 16,
      "name": "floatBufferViews"
    }
  ],
  "buffers": [
    {
      "byteLength": 7873904,
      "uri": "scene.bin"
    }
  ],
  "materials": [
    {
      "alphaMode": "BLEND",
      "doubleSided": true,
      "name": "material_0",
      "pbrMetallicRoughness": {
        "baseColorFactor": [
          0.20594136762876553,
          0.056620829499848625,
          0.0025231022210088433,
          0.49828723287537635
        ],
        "metallicFactor": 0.0,
        "roughnessFactor": 0.6
      }
    },
    {
      "doubleSided": true,
      "name": "Material.006",
      "pbrMetallicRoughness": {
        "baseColorFactor": [
          0.569296973095537,
          0.569296973095537,
          0.569296973095537,
          1.0
        ],
        "metallicFactor": 0.0,
        "roughnessFactor": 0.0
      }
    },
    {
      "doubleSided": true,
      "name": "Material.005",
      "pbrMetallicRoughness": {
        "baseColorFactor": [
          0.0693571372228666,
          0.019287299222792195,
          0.019287299222792195,
          1.0
        ],
        "metallicFactor": 0.0,
        "roughnessFactor": 0.20304519023296075
      }
    }
  ],
  "meshes": [
    {
      "name": "Cylinder_Material.006_0",
      "primitives": [
        {
          "attributes": {
            "NORMAL": 1,
            "POSITION": 0,
            "TEXCOORD_0": 2,
            "TEXCOORD_1": 3
          },
          "indices": 4,
          "material": 1,
          "mode": 4
        }
      ]
    },
    {
      "name": "Cylinder_Material.006_0",
      "primitives": [
        {
          "attributes": {
            "NORMAL": 6,
            "POSITION": 5,
            "TEXCOORD_0": 7,
            "TEXCOORD_1": 8
          },
          "indices": 9,
          "material": 1,
          "mode": 4
        }
      ]
    },
    {
      "name": "Circle_Material.005_0",
      "primitives": [
        {
          "attributes": {
            "NORMAL": 11,
            "POSITION": 10,
            "TEXCOORD_0": 12,
            "TEXCOORD_1": 13
          },
          "indices": 14,
          "material": 2,
          "mode": 4
        }
      ]
    },
    {
      "name": "Cylinder.001__0",
      "primitives": [
        {
          "attributes": {
            "JOINTS_0": 20,
            "NORMAL": 16,
            "POSITION": 15,
            "TEXCOORD_0": 17,
            "WEIGHTS_0": 21
          },
          "indices": 18,
          "material": 0,
          "mode": 4
        }
      ]
    }
  ],
  "nodes": [
    {
      "children": [
        1
      ],
      "matrix": [
        1.0,
        0.0,
        0.0,
        0.0,
        0.0,
        2.220446049250313e-16,
        -1.0,
        0.0,
        0.0,
        1.0,
        2.220446049250313e-16,
        0.0,
        0.0,
        0.0,
        0.0,
        1.0
      ],
      "name": "Sketchfab_model"
    },
    {
      "children": [
        2
      ],
      "matrix": [
        0.009999999776482582,
        0.0,
        0.0,
        0.0,
        0.0,
        0.0,
        0.009999999776482582,
        0.0,
        0.0,
        -0.009999999776482582,
        0.0,
        0.0,
        0.0,
        0.0,
        0.0,
        1.0
      ],
      "name": "c444e300743744b392e68be146aac0cd.fbx"
    },
    {
      "children": [
        3
      ],
      "name": "Object_2"
    },
    {
      "children": [
        4,
        6,
        7,
        10,
        13,
        16,
        19,
        22,
        25,
        27,
        28
      ],
      "name": "RootNode"
    },
    {
      "children": [
        5
      ],
      "name": "Camera",
      "rotation": [
        -0.21719370782375336,
        0.924532949924469,
        0.07161743193864822,
        -0.30485519766807556
      ],
      "scale": [
        100.00000762939453,
        100.00000762939453,
        99.99999237060547
      ],
      "translation": [
        1474.095458984375,
        1039.758544921875,
        -1350.409912109375
      ]
    },
    {
      "name": "Object_5"
    },
    {
      "name": "Empty",
      "rotation": [
        8.146034957690063e-08,
        0.0,
        0.0,
        1.0
      ],
      "scale": [
        115.92955780029297,
        115.92955780029297,
        115.92955780029297
      ],
      "translation": [
        53.10418701171875,
        23.278640747070313,
        -274.16162109375
      ]
    },
    {
      "children": [
        8,
        9
      ],
      "name": "Cylinder",
      "rotation": [
        -0.7071068286895752,
        0.0,
        0.0,
        0.7071067094802856
      ],
      "scale": [
        158.7817840576172,
        158.7817840576172,
        158.7817840576172
      ],
      "translation": [
        -7.397878170013428,
        183.35946655273438,
        -318.122802734375
      ]
    },
    {
      "mesh": 0,
      "name": "Cylinder_Material.006_0"
    },
    {
      "mesh": 1,
      "name": "Cylinder_Material.006_0"
    },
    {
      "children": [
        11
      ],
      "name": "Area",
      "rotation": [
        -2.8934607598785078e-08,
        2.4244004137585762e-08,
        -0.6422431468963623,
        0.7665010094642639
      ],
      "scale": [
        100.0,
        100.0,
        100.0
      ],
      "translation": [
        1236.3226318359375,
        142.3582305908203,
        -110.35203552246094
      ]
    },
    {
      "children": [
        12
      ],
      "matrix": [
        1.0,
        0.0,
        0.0,
        0.0,
        0.0,
        2.220446049250313e-16,
        1.0,
        0.0,
        0.0,
        -1.0,
        2.220446049250313e-16,
        0.0,
        0.0,
        0.0,
        0.0,
        1.0
      ],
      "name": "Object_11"
    },
    {
      "name": "Object_12"
    },
    {
      "children": [
        14
      ],
      "name": "Area.001",
      "rotation": [
        -3.771737411284448e-08,
        1.5437755518377116e-09,
        -0.04089584946632385,
        0.9991635084152222
      ],
      "scale": [
        100.0,
        100.0,
        100.0
      ],
      "translation": [
        76.33423614501953,
        642.1774291992188,
        -275.2048645019531
      ]
    },
    {
      "children": [
        15
      ],
      "matrix": [
        1.0,
        0.0,
        0.0,
        0.0,
        0.0,
        2.220446049250313e-16,
        1.0,
        0.0,
        0.0,
        -1.0,
        2.220446049250313e-16,
        0.0,
        0.0,
        0.0,
        0.0,
        1.0
      ],
      "name": "Object_14"
    },
    {
      "name": "Object_15"
    },
    {
      "children": [
        17
      ],
      "name": "Area.002",
      "rotation": [
        -2.530511267195834e-08,
        -2.801133902607944e-08,
        0.7420427203178406,
        0.6703526377677917
      ],
      "scale": [
        100.0,
        100.0,
        100.0
      ],
      "translation": [
        -888.0877685546875,
        321.864501953125,
        -341.9596252441406
      ]
    },
    {
      "children": [
        18
      ],
      "matrix": [
        1.0,
        0.0,
        0.0,
        0.0,
        0.0,
        2.220446049250313e-16,
        1.0,
        0.0,
        0.0,
        -1.0,
        2.220446049250313e-16,
        0.0,
        0.0,
        0.0,
        0.0,
        1.0
      ],
      "name": "Object_17"
    },
    {
      "name": "Object_18"
    },
    {
      "children": [
        20
      ],
      "name": "Light.001",
      "rotation": [
        0.16907571256160736,
        0.7558803558349609,
        -0.2721713185310364,
        0.5709474682807922
      ],
      "scale": [
        100.00000762939453,
        100.0,
        100.0
      ],
      "translation": [
        -212.65904235839844,
        804.17578125,
        610.7247924804688
      ]
    },
    {
      "children": [
        21
      ],
      "matrix": [
        1.0,
        0.0,
        0.0,
        0.0,
        0.0,
        2.220446049250313e-16,
        1.0,
        0.0,
        0.0,
        -1.0,
        2.220446049250313e-16,
        0.0,
        0.0,
        0.0,
        0.0,
        1.0
      ],
      "name": "Object_20"
    },
    {
      "name": "Object_21"
    },
    {
      "children": [
        23
      ],
      "name": "Light.002",
      "rotation": [
        0.16907571256160736,
        0.7558803558349609,
        -0.2721713185310364,
        0.5709474682807922
      ],
      "scale": [
        100.00000762939453,
        100.0,
        100.0
      ],
      "translation": [
        -212.65904235839844,
        1006.5758056640625,
        -775.8568725585938
      ]
    },
    {
      "children": [
        24
      ],
      "matrix": [
        1.0,
        0.0,
        0.0,
        0.0,
        0.0,
        2.220446049250313e-16,
        1.0,
        0.0,
        0.0,
        -1.0,
        2.220446049250313e-16,
        0.0,
        0.0,
        0.0,
        0.0,
        1.0
      ],
      "name": "Object_23"
    },
    {
      "name": "Object_24"
    },
    {
      "children": [
        26
      ],
      "name": "Circle",
      "rotation": [
        -0.7071068286895752,
        0.0,
        0.0,
        0.7071067094802856
      ],
      "scale": [
        142.0701446533203,
        144.70492553710938,
        118.36018371582031
      ],
      "translation": [
        -5.467294216156006,
        22.87229347229004,
        -275.2048645019531
      ]
    },
    {
      "mesh": 2,
      "name": "Circle_Material.005_0"
    },
    {
      "name": "Cylinder.001",
      "rotation": [
        -0.7071068286895752,
        0.0,
        0.0,
        0.7071067094802856
      ],
      "scale": [
        150.49044799804688,
        150.49044799804688,
        150.49044799804688
      ],
      "translation": [
        -8.337867736816406,
        504.33935546875,
        -316.5722961425781
      ]
    },
    {
      "children": [
        29
      ],
      "name": "Armature",
      "rotation": [
        -0.7071068286895752,
        0.0,
        0.0,
        0.7071067094802856
      ],
      "scale": [
        100.0,
        100.0,
        100.0
      ],
      "translation": [
        -5.645036697387695,
        381.2471008300781,
        -326.13067626953125
      ]
    },
    {
      "children": [
        30,
        32,
        31
      ],
      "name": "Object_29"
    },
    {
      "children": [
        33
      ],
      "name": "_rootJoint"
    },
    {
      "matrix": [
        150.49044931787367,
        -1.9081286349295338e-07,
        -5.610095721308994e-13,
        0.0,
        -5.610095333401442e-13,
        7.60460625467499e-14,
        -150.49043893814417,
        0.0,
        1.9081286349361383e-07,
        150.49044931839455,
        7.604606708078767e-14,
        0.0,
        -8.337868220704765,
        504.33936670141645,
        -316.5722817928754,
        1.0
      ],
      "name": "Object_31"
    },
    {
      "mesh": 3,
      "name": "Object_32",
      "skin": 0
    },
    {
      "children": [
        34
      ],
      "name": "Bone_00",
      "rotation": [
        0.7087705731391907,
        0.04531111940741539,
        0.0015231419820338488,
        0.7039807438850403
      ],
      "scale": [
        0.9999999403953552,
        1.0,
        0.9999999403953552
      ],
      "translation": [
        -0.023504219949245453,
        -1.0797762683978362e-10,
        -0.14102528989315033
      ]
    },
    {
      "children": [
        35
      ],
      "name": "Bone.001_01",
      "rotation": [
        0.003317786380648613,
        -0.02872495912015438,
        0.13434875011444092,
        0.9905121326446533
      ],
      "scale": [
        1.0,
        0.9999998807907104,
        1.0
      ],
      "translation": [
        2.6193447411060333e-09,
        1.1287901401519775,
        -2.0372681319713593e-10
      ]
    },
    {
      "children": [
        36
      ],
      "name": "Bone.002_02",
      "rotation": [
        0.02075805887579918,
        -0.008288023993372917,
        -0.2825454771518707,
        0.9589934945106506
      ],
      "scale": [
        0.9999998807907104,
        0.9999998211860657,
        0.9999999403953552
      ],
      "translation": [
        -2.5582266971468925e-08,
        1.2623960971832275,
        3.3760443329811096e-09
      ]
    },
    {
      "name": "Bone.002_end_03",
      "rotation": [
        3.164430792413598e-35,
        8.673617379884035e-19,
        -3.6483403104137224e-17,
        1.0
      ],
      "translation": [
        4.440892098500626e-16,
        1.3067113161087036,
        -4.440892098500626e-16
      ]
    }
  ],
  "scene": 0,
  "scenes": [
    {
      "name": "Sketchfab_Scene",
      "nodes": [
        0
      ]
    }
  ],
  "skins": [
    {
      "inverseBindMatrices": 19,
      "joints": [
        30,
        33,
        34,
        35,
        36
      ],
      "skeleton": 30
    }
  ]
}
